# xmcd CD database file
#
# Track frame offsets:
#	150
#	18314
#	35354
#	57656
#	72020
#	92322
#	115287
#	135591
#	156278
#	173018
#	192120
#	211447
#	227761
#	248451
#	266105
#
# Disc length: 3809 seconds
#
# Revision: 2
# Processed by: cddbd v1.5.2PL0 Copyright (c) Steve Scherf et al.
# Submitted via: CDex 1.70beta2
#
DISCID=c50edf0f
DTITLE=Various Artist - 青春歌年鑑 ’80 BEST 30 Disc 01
DYEAR=1980
DGENRE=歌謡曲
TTITLE0=ダンシング・オールナイト -- もんた and ブラザーズ
TTITLE1=異邦人 -- 久保田  早紀
TTITLE2=大都会 -- クリスタルキング
TTITLE3=ランナウェイ -- シャネルズ
TTITLE4=ライディーン -- Yellow Magic Orchestra
TTITLE5=さよなら -- オフコース
TTITLE6=SACHIKO -- ばんば  ひろふみ
TTITLE7=昴 -- 谷村  新司
TTITLE8=青い珊瑚礁 -- 松田  聖子
TTITLE9=パープルタウン -- 八神  純子
TTITLE10=秋止符 -- ア リ ス
TTITLE11=ハッとして!Good -- 田原  俊彦
TTITLE12=Wake Up -- 財津  和夫
TTITLE13=唇よ、熱く君を語れ -- 渡辺  真知子
TTITLE14=おやじの海 -- 村木  賢吉
EXTD=YEAR: 1980
EXTT0=
EXTT1=
EXTT2=
EXTT3=
EXTT4=
EXTT5=
EXTT6=
EXTT7=
EXTT8=
EXTT9=
EXTT10=
EXTT11=
EXTT12=
EXTT13=
EXTT14=
PLAYORDER=
